# xmcd
#
# Track frame offsets: 
#        150
#        23898
#        46709
#        64287
#        85249
#        108497
#        133130
#        150221
#        168004
#
# Disc length: 2467 seconds
#
# Revision: 3
# Processed by: cddbd v1.5.2PL0 Copyright (c) Steve Scherf et al.
# Submitted via: ExactAudioCopyFreeDBPlugin 1.0
#
DISCID=6609a109
DTITLE=Thåstrom - Beväpna dig med vingar
DYEAR=2012
DGENRE=Rock
TTITLE0=Beväpna dig med vingar
TTITLE1=Låt dom regna
TTITLE2=Smaken av dig
TTITLE3=Samarkanda
TTITLE4=St Ana katedral
TTITLE5=Dansbandssångaren
TTITLE6=Nere på Maskinisten
TTITLE7=Brunkebergstorg
TTITLE8=Sluta när jag vill
EXTD=
EXTT0=
EXTT1=
EXTT2=
EXTT3=
EXTT4=
EXTT5=
EXTT6=
EXTT7=
EXTT8=
PLAYORDER=
